<?xml version="1.0" standalone="no"?>
<!DOCTYPE svg PUBLIC "-//W3C//DTD SVG 20010904//EN"
 "http://www.w3.org/TR/2001/REC-SVG-20010904/DTD/svg10.dtd">
<svg version="1.0" xmlns="http://www.w3.org/2000/svg"
 width="300.000000pt" height="300.000000pt" viewBox="0 0 300.000000 300.000000"
 preserveAspectRatio="xMidYMid meet">
<metadata>
Created by potrace 1.10, written by Peter Selinger 2001-2011
</metadata>
<g transform="translate(0.000000,300.000000) scale(0.100000,-0.100000)"
fill="#000000" stroke="none">
<path d="M2203 2985 c-147 -40 -264 -152 -309 -297 l-17 -56 -276 -4 -276 -3
-55 -27 c-45 -22 -159 -132 -646 -620 -558 -559 -593 -596 -609 -647 -21 -65
-17 -131 13 -192 15 -31 143 -165 429 -450 365 -363 413 -408 457 -423 63 -20
110 -20 172 1 39 13 73 40 165 130 l116 114 5 -159 c5 -182 19 -225 90 -287
79 -67 67 -66 744 -63 607 3 609 3 650 25 53 28 96 71 120 120 18 36 19 74 19
903 l0 865 -28 47 c-15 26 -70 86 -122 135 l-95 88 0 215 c0 118 -5 235 -11
259 -36 157 -173 294 -330 330 -61 14 -144 12 -206 -4z m251 -145 c62 -32 126
-103 149 -166 14 -41 17 -77 15 -204 l-3 -153 -128 124 c-169 163 -189 174
-348 183 -68 4 -126 9 -128 11 -7 7 22 69 52 112 33 47 87 88 144 109 61 22
187 14 247 -16z m-584 -407 c-1 -68 -1 -68 -41 -96 -79 -54 -101 -174 -48
-252 73 -106 228 -111 305 -10 22 30 29 50 32 100 5 77 -20 130 -79 166 -38
24 -38 24 -39 92 l0 67 73 0 c88 0 135 -20 159 -70 16 -32 18 -74 18 -428 0
-314 -3 -399 -14 -425 -8 -18 -263 -280 -598 -614 l-583 -583 -55 0 -55 0
-407 408 -408 407 0 55 0 55 578 578 c317 319 591 588 607 598 27 17 52 19
293 19 l262 0 0 -67z m773 -315 l227 -223 0 -845 c0 -929 4 -872 -60 -905 -25
-13 -116 -15 -630 -15 l-600 0 -38 34 -37 34 -3 223 -3 223 420 420 c285 287
425 434 437 461 17 36 19 80 22 438 3 369 4 396 20 387 9 -5 119 -110 245
-232z m-663 112 c40 -40 13 -100 -45 -100 -39 0 -55 16 -55 54 0 59 59 87 100
46z"/>
</g>
</svg>
