<?xml version="1.0" standalone="no"?>
<!DOCTYPE svg PUBLIC "-//W3C//DTD SVG 20010904//EN"
 "http://www.w3.org/TR/2001/REC-SVG-20010904/DTD/svg10.dtd">
<svg version="1.0" xmlns="http://www.w3.org/2000/svg"
 width="300.000000pt" height="300.000000pt" viewBox="0 0 300.000000 300.000000"
 preserveAspectRatio="xMidYMid meet">
<metadata>
Created by potrace 1.10, written by Peter Selinger 2001-2011
</metadata>
<g transform="translate(0.000000,300.000000) scale(0.100000,-0.100000)"
fill="#ffffff" stroke="none">
<path d="M650 2712 c-41 -20 -60 -53 -60 -106 0 -29 -6 -43 -25 -58 -14 -11
-29 -27 -34 -36 -10 -19 -28 -144 -61 -427 -12 -99 -27 -221 -34 -272 l-13
-92 -187 -195 c-212 -222 -229 -249 -230 -361 -1 -84 23 -142 83 -208 37 -40
41 -49 41 -99 0 -201 146 -423 341 -516 106 -51 172 -66 279 -65 168 1 308 60
431 183 56 55 85 95 112 150 40 81 67 174 67 227 l0 33 450 0 c248 0 450 -2
450 -4 0 -2 -10 -25 -22 -52 -30 -66 -32 -206 -4 -279 61 -161 201 -258 371
-257 224 0 388 166 389 392 0 76 -4 93 -33 157 -35 76 -106 155 -168 187 l-32
16 -3 317 c-3 337 -4 342 -52 374 -15 10 -72 15 -211 19 l-190 5 -5 167 c-5
159 -6 168 -29 192 -13 14 -32 28 -43 32 -16 5 -18 18 -18 129 l0 124 31 36
c52 59 10 93 -46 38 -40 -41 -45 -62 -45 -193 l0 -118 -35 -21 c-56 -33 -65
-67 -65 -241 l0 -151 -122 3 -123 3 -12 60 c-7 33 -44 209 -82 390 l-70 330
-35 30 c-28 23 -36 38 -36 62 0 47 -19 80 -55 98 -28 13 -92 15 -432 15 -359
0 -401 -2 -433 -18z m848 -54 c7 -7 12 -29 12 -50 l0 -38 -427 2 -428 3 -3 35
c-6 61 -11 60 433 60 299 0 404 -3 413 -12z m-453 -528 l0 -385 -277 -3 c-260
-2 -278 -1 -278 15 0 10 7 72 15 138 19 147 42 334 59 479 18 154 4 147 270
144 l211 -3 0 -385z m528 378 c11 -9 30 -80 62 -233 25 -121 61 -293 80 -383
31 -147 35 -180 35 -318 0 -88 -4 -164 -10 -175 -10 -17 -22 -19 -148 -19
l-137 1 -177 173 -178 173 0 390 c0 214 3 393 7 396 3 4 106 7 228 7 161 0
226 -3 238 -12z m648 -437 c23 -19 24 -23 24 -173 l0 -153 -67 -3 -68 -3 0
156 c0 142 2 157 20 175 25 25 61 26 91 1z m-996 -551 c88 -88 174 -169 191
-180 28 -18 48 -20 170 -20 121 0 143 3 172 20 18 11 37 32 42 46 6 14 10 86
10 160 l0 134 350 0 350 0 0 -102 c0 -79 5 -112 19 -143 24 -52 76 -101 126
-118 l40 -14 0 -122 0 -123 -95 -2 c-109 -1 -177 -26 -247 -90 l-40 -36 -475
0 -475 0 -6 52 c-10 81 -45 172 -96 250 -76 117 -181 199 -312 245 -97 34
-243 42 -343 19 -147 -35 -289 -132 -371 -256 -45 -67 -94 -184 -95 -222 0
-31 -18 -20 -47 30 -24 39 -28 58 -28 117 0 47 6 81 18 103 10 18 99 118 199
222 l181 190 301 0 301 0 160 -160z m1459 138 c13 -18 16 -51 16 -155 0 -125
-1 -133 -19 -133 -25 0 -77 44 -96 81 -10 19 -15 60 -15 129 l0 100 49 0 c40
0 53 -4 65 -22z m-1765 -233 c251 -80 420 -345 382 -601 -28 -190 -134 -341
-298 -426 -98 -50 -153 -63 -268 -62 -112 2 -189 24 -291 85 -93 56 -183 168
-224 277 -100 265 19 565 275 696 121 62 287 74 424 31z m1805 -446 c73 -27
148 -96 183 -167 37 -77 40 -202 6 -275 -120 -259 -469 -274 -604 -25 -32 59
-34 69 -34 153 0 71 5 100 21 136 39 83 116 154 203 185 56 20 162 17 225 -7z"/>
<path d="M623 1209 c-67 -26 -147 -98 -180 -163 -31 -61 -42 -170 -24 -243 28
-113 126 -207 250 -239 158 -40 334 51 391 203 86 229 -76 464 -319 462 -41 0
-86 -8 -118 -20z m237 -60 c180 -81 222 -318 81 -456 -137 -135 -362 -93 -451
83 -67 134 1 310 144 375 57 26 166 25 226 -2z"/>
<path d="M2530 857 c-53 -25 -80 -51 -105 -100 -29 -59 -31 -97 -10 -158 60
-168 286 -180 368 -20 15 30 27 67 27 82 0 41 -28 111 -58 143 -54 58 -158 83
-222 53z m147 -67 c46 -28 66 -64 67 -120 2 -113 -120 -181 -217 -122 -60 38
-84 120 -53 180 16 30 53 66 76 75 34 12 96 6 127 -13z"/>
</g>
</svg>
