<svg width="26" height="26" viewBox="0 0 26 26" fill="none" xmlns="http://www.w3.org/2000/svg">
<rect width="26" height="26" fill="white"/>
<path d="M5.66801 2.42667C5.35601 2.54801 5.11334 2.93801 5.11334 3.30634C5.11334 3.57501 5.05267 3.70501 4.82301 3.93467C4.47201 4.29001 4.51967 4.02567 4.06034 7.87367L3.68334 11.024L2.10601 12.6837C1.23501 13.598 0.424672 14.5297 0.299005 14.7593C-0.186328 15.6477 -0.0433281 16.8003 0.650005 17.576C0.996672 17.9617 1.01834 18.0267 1.11801 18.7893C1.69867 23.361 7.05467 25.2633 10.27 22.0393C11.037 21.268 11.609 20.163 11.7433 19.1967C11.7737 18.9583 11.8213 18.694 11.843 18.6117C11.882 18.4687 12.142 18.46 15.743 18.46C19.3873 18.46 19.5997 18.4687 19.539 18.6117C18.174 21.7577 21.1033 24.752 24.0933 23.2613C26.5113 22.048 26.611 18.4427 24.258 17.2423L23.92 17.069V14.4257C23.92 10.7337 24.0413 10.92 21.6277 10.92H20.02V9.64167C20.0157 8.16401 19.8943 7.73934 19.422 7.53134L19.1533 7.41001V6.34401V5.27367L19.4133 5.01367C19.8293 4.59767 19.695 4.22934 19.2227 4.47201C18.7373 4.72334 18.6333 5.03101 18.6333 6.25734V7.36234L18.3733 7.49667C17.875 7.75234 17.8143 7.95601 17.7667 9.48567L17.7233 10.8767H16.692H15.6563L14.989 7.64834C14.248 4.07334 14.2263 3.99534 13.8623 3.78301C13.6457 3.65301 13.6067 3.57501 13.6067 3.28467C13.6067 2.84701 13.494 2.63467 13.1733 2.47001C12.8873 2.32267 6.02334 2.27934 5.66801 2.42667ZM12.9177 2.95101C13.0347 3.01167 13.0867 3.13301 13.0867 3.34101V3.64001H9.36001H5.63334V3.38434C5.63334 2.85134 5.56401 2.86001 9.32967 2.86001C11.5223 2.86001 12.8137 2.89034 12.9177 2.95101ZM9.01334 7.58334V10.92H6.63001C5.32134 10.92 4.24667 10.8983 4.24667 10.8767C4.24667 10.439 5.05267 4.45034 5.12201 4.36367C5.20001 4.27267 5.61601 4.24667 7.11534 4.24667H9.01334V7.58334ZM13.7323 4.39401C14.1223 5.40801 15.1667 11.271 15.1667 12.441C15.1667 14.118 15.236 14.04 13.7497 14.04H12.623L11.1193 12.5493L9.62001 11.0543V7.65267V4.24667H11.648C13.4767 4.24667 13.6803 4.25967 13.7323 4.39401ZM19.24 8.06001C19.4003 8.22034 19.4133 8.35034 19.4133 9.57667V10.92H18.85H18.2867V9.61567C18.2867 8.01234 18.629 7.44901 19.24 8.06001ZM10.66 12.8743C12.4323 14.6553 12.2503 14.56 13.8277 14.56H15.0973L15.392 14.2653L15.6867 13.9707V12.7053V11.44H18.7113H21.7403L21.7663 12.467C21.8053 13.806 22.1823 14.4257 23.075 14.6163L23.3133 14.6683V15.73V16.7917L22.4683 16.8307C21.515 16.8697 20.9517 17.082 20.306 17.6323L19.9507 17.94H15.9077C12.7487 17.94 11.8603 17.9183 11.8387 17.8317C11.8213 17.771 11.765 17.4677 11.7087 17.16C11.102 13.7627 7.19767 11.9037 3.98667 13.4897C2.74301 14.105 1.47334 15.6953 1.25234 16.9217C1.15701 17.446 0.814672 17.16 0.606672 16.3843C0.368339 15.5003 0.606672 15.0367 2.09734 13.4767C2.73434 12.8093 3.42767 12.077 3.63567 11.8517L4.01701 11.44H6.62134H9.23001L10.66 12.8743ZM23.1443 11.531C23.3263 11.6263 23.413 14.1267 23.2397 14.1267C22.6807 14.1267 22.2733 13.3553 22.2733 12.285V11.44H22.6243C22.8193 11.44 23.0533 11.479 23.1443 11.531ZM7.65267 13.5677C10.8853 14.4083 12.3153 18.2 10.4433 20.9733C8.51501 23.829 4.24234 23.7683 2.39201 20.8607C0.0693384 17.2033 3.47101 12.4843 7.65267 13.5677ZM23.907 17.68C26.5027 19.0623 25.5667 23.0403 22.6373 23.075C19.8597 23.114 18.6333 19.656 20.813 17.9313C21.6753 17.2467 22.906 17.147 23.907 17.68Z" fill="black"/>
<path d="M6.11001 15.314C4.46767 15.5133 3.25434 17.1253 3.54901 18.72C4.07767 21.5973 7.83034 22.1303 9.12167 19.513C10.1357 17.4547 8.40234 15.0367 6.11001 15.314ZM7.29734 15.9943C8.90501 16.5447 9.38601 18.707 8.17267 19.9507C6.70801 21.4543 4.08201 20.41 4.07334 18.3213C4.06901 16.575 5.65067 15.431 7.29734 15.9943Z" fill="black"/>
<path d="M21.7533 18.655C20.657 19.24 20.4837 20.6917 21.4067 21.528C22.8367 22.815 24.9947 21.164 24.1323 19.4393C23.686 18.5467 22.62 18.1913 21.7533 18.655ZM23.2743 19.1923C23.894 19.5997 23.9547 20.5227 23.3957 21.0817C22.3903 22.0913 20.7567 20.7177 21.541 19.5217C21.892 18.9887 22.724 18.8327 23.2743 19.1923Z" fill="black"/>
</svg>
