 <svg  version="1.0" xmlns="http://www.w3.org/2000/svg"  width="300.000000pt" height="300.000000pt" viewBox="0 0 300.000000 300.000000"  preserveAspectRatio="xMidYMid meet">  <g transform="translate(0.000000,300.000000) scale(0.100000,-0.100000)" fill="#ffffff" stroke="none"> <path d="M213 2802 c-30 -5 -63 -48 -63 -83 0 -30 14 -54 174 -307 54 -85 100 -160 103 -168 6 -17 -4 -13 -122 41 -206 96 -224 101 -268 72 -31 -20 -42 -61 -26 -99 13 -32 41 -48 210 -123 56 -25 105 -47 107 -50 2 -2 -5 -16 -16 -32 -90 -128 -113 -304 -57 -430 69 -155 267 -387 675 -793 323 -322 608 -588 662 -617 48 -27 128 -31 180 -9 40 17 83 58 106 101 17 33 22 120 9 176 -8 35 -7 37 24 48 57 20 100 13 184 -29 166 -83 304 -73 437 31 42 33 343 494 389 595 53 116 72 207 72 339 1 148 -18 236 -79 361 -75 155 -204 272 -363 331 l-70 26 24 31 c63 82 105 234 105 376 0 144 -28 167 -198 157 -117 -7 -200 -28 -283 -73 -56 -31 -144 -113 -154 -145 -9 -28 -17 -23 -54 36 -46 72 -142 165 -215 209 -72 43 -122 48 -153 14 -52 -58 -36 -102 56 -157 132 -78 225 -215 258 -379 9 -45 14 -85 11 -88 -3 -3 -34 3 -69 12 -98 27 -264 25 -359 -5 -41 -13 -93 -32 -115 -43 l-40 -21 -20 28 c-65 90 -86 113 -133 146 -82 58 -171 82 -287 77 l-96 -3 3 173 3 174 -28 24 c-15 13 -37 24 -48 24 -29 0 -75 -26 -84 -47 -4 -10 -10 -98 -13 -195 -2 -98 -7 -178 -11 -178 -3 1 -70 103 -148 228 -146 235 -163 254 -220 244z m2223 -284 c-9 -78 -37 -160 -70 -203 -45 -58 -166 -121 -288 -149 l-28 -6 6 47 c10 81 33 172 53 211 40 79 125 133 236 151 102 17 99 20 91 -51z m-1456 -347 c80 -30 111 -61 167 -162 76 -139 76 -136 -4 -184 -95 -55 -113 -76 -113 -124 0 -31 6 -44 26 -60 40 -31 72 -26 153 25 40 25 75 43 77 41 12 -11 214 -567 214 -588 0 -4 -29 -23 -64 -43 -67 -38 -76 -49 -76 -99 0 -70 71 -97 152 -56 22 11 44 17 48 12 9 -9 115 -341 155 -487 16 -56 7 -86 -26 -86 -11 0 -82 58 -172 142 -247 231 -587 562 -587 573 0 6 15 19 33 29 89 51 112 112 62 161 -36 37 -76 32 -151 -15 -35 -22 -68 -40 -73 -40 -24 0 -300 327 -363 432 -34 55 -38 69 -38 127 0 87 12 126 58 191 63 91 188 178 307 216 61 19 157 17 215 -5z m828 -171 c100 -26 233 -26 335 -1 166 43 266 36 397 -26 98 -47 177 -126 223 -225 49 -102 62 -166 60 -288 -2 -178 -30 -242 -268 -605 -119 -181 -152 -218 -216 -235 -52 -14 -86 -7 -188 43 -100 49 -184 59 -272 34 -29 -9 -54 -15 -54 -14 -1 1 -41 121 -89 267 -81 248 -215 617 -319 880 -31 80 -42 119 -35 127 13 16 110 53 168 63 62 12 168 4 258 -20z"/> </g> </svg> 