<svg width="26" height="26" viewBox="0 0 26 26" fill="none" xmlns="http://www.w3.org/2000/svg">
<rect width="26" height="26" fill="white"/>
<path d="M13.6327 1.69867C13.4507 1.794 13.3207 1.94133 13.26 2.132C13.1213 2.55667 13.286 2.834 13.91 3.198C14.9413 3.796 15.756 4.89667 16.0593 6.11C16.1807 6.56933 16.2413 7.03733 16.2153 7.202C16.2067 7.228 15.9033 7.18467 15.5393 7.098C14.1353 6.76 12.5493 6.98533 11.258 7.68733C11.2233 7.70467 11.076 7.52267 10.9287 7.28867C10.1313 6.058 8.64933 5.36467 7.13267 5.512L6.58667 5.57267L6.64733 4.134L6.69933 2.704L6.43067 2.43533C6.10133 2.106 5.73733 2.08 5.39933 2.37467L5.15667 2.58267L5.11333 4.22067L5.07 5.85L4.76667 5.37333C4.59333 5.11333 4.03 4.22067 3.51 3.38867C2.74733 2.17533 2.51333 1.86333 2.27933 1.768C1.768 1.55133 1.30867 1.86333 1.3 2.43533C1.3 2.678 1.534 3.11133 2.51333 4.67133C3.18933 5.73733 3.72667 6.62133 3.70933 6.63C3.692 6.64733 3.05933 6.36133 2.29667 6.01467C0.78 5.31267 0.554667 5.278 0.199334 5.68533C-0.0519996 5.96267 -0.0519996 6.344 0.199334 6.62133C0.303334 6.734 0.927334 7.08067 1.57733 7.37533C2.236 7.67 2.77333 7.94733 2.77333 7.99067C2.77333 8.02533 2.678 8.20733 2.574 8.38933C2.054 9.204 1.82 10.3307 1.98467 11.2147C2.24467 12.6273 3.63133 14.3693 7.84333 18.5987C10.894 21.658 13.338 23.9547 13.8147 24.1973C14.0313 24.31 14.3347 24.3707 14.6553 24.3793C15.2707 24.3793 15.8427 24.076 16.1893 23.556C16.3973 23.2353 16.4233 23.1227 16.4147 22.542C16.406 22.178 16.3887 21.8053 16.3713 21.71C16.3453 21.58 16.4147 21.5193 16.6833 21.424C17.1513 21.268 17.498 21.3373 18.356 21.7707C19.0493 22.126 19.1273 22.1433 19.838 22.1433C20.7393 22.1347 21.372 21.918 21.9527 21.4067C22.3687 21.034 24.7087 17.4893 25.2633 16.3887C26.2947 14.3433 26.1993 11.5873 25.038 9.66333C24.44 8.66667 23.0273 7.55733 21.9093 7.19333C21.7273 7.14133 21.58 7.08067 21.58 7.06333C21.58 7.046 21.7013 6.84667 21.8487 6.63C22.3167 5.93667 22.5507 5.05267 22.6027 3.80467C22.6373 2.73867 22.6373 2.71267 22.4207 2.46133C22.2127 2.22733 22.1607 2.21 21.4153 2.184C19.5693 2.106 17.9487 2.79067 17.134 3.98667C16.9953 4.19467 16.978 4.19467 16.874 4.03867C16.2067 3.02467 15.4873 2.32267 14.6467 1.872C14.0833 1.57733 13.9447 1.55133 13.6327 1.69867ZM21.1033 4.134C20.9127 5.50333 20.4967 6.162 19.5 6.67333C19.0147 6.916 18.1913 7.19333 17.94 7.19333C17.81 7.19333 17.8013 7.124 17.8707 6.656C18.0873 5.03533 18.616 4.25533 19.7167 3.9C20.0027 3.81333 20.4447 3.73533 20.696 3.73533L21.1553 3.72667L21.1033 4.134ZM8.66667 7.254C8.88333 7.34933 9.178 7.54867 9.32533 7.70467C9.62867 8.01667 10.5213 9.66333 10.452 9.78467C10.426 9.828 10.1313 10.0187 9.802 10.218C9.1 10.6427 8.944 10.7987 8.87467 11.1453C8.84 11.3533 8.87467 11.466 9.05667 11.6827C9.386 12.0813 9.75 12.0553 10.452 11.6133C10.7553 11.4227 11.0413 11.2667 11.0847 11.2667C11.128 11.2667 11.3273 11.6827 11.5267 12.194C11.882 13.1127 13 16.2587 13 16.3367C13 16.3627 12.766 16.4927 12.48 16.64C11.648 17.056 11.4573 17.7407 12.0727 18.122C12.428 18.3387 12.532 18.33 13.0347 18.0613C13.26 17.94 13.468 17.862 13.494 17.888C13.52 17.914 13.8667 18.9713 14.2653 20.2453C15.0193 22.6287 15.054 22.88 14.6553 22.88C14.4647 22.88 12.584 21.1553 9.96667 18.5813L8.02533 16.666L8.476 16.38C8.72733 16.2327 8.97 16.0333 9.01333 15.9467C9.16933 15.6607 9.10867 15.262 8.88333 15.0367C8.57133 14.716 8.22467 14.7593 7.514 15.184L6.90733 15.548L6.682 15.288C6.56067 15.1407 6.11 14.638 5.694 14.17C4.77533 13.1473 3.874 11.96 3.63133 11.4573C3.47533 11.1453 3.44933 10.972 3.484 10.4607C3.54467 9.49 3.96933 8.77933 4.888 8.09467C6.23133 7.08067 7.60067 6.77733 8.66667 7.254ZM15.6 8.67533C16.5187 8.918 17.6713 8.90933 18.72 8.658C20.618 8.20733 22.0307 8.58 23.2093 9.828C24.0673 10.7553 24.44 11.7693 24.44 13.26C24.44 14.17 24.2407 15.054 23.8767 15.7733C23.634 16.2587 21.3027 19.89 21.0773 20.1327C20.826 20.4187 20.306 20.6267 19.8813 20.6267C19.5693 20.6267 19.2833 20.5313 18.7373 20.2627C18.1047 19.9507 17.9227 19.8987 17.3073 19.864C16.8133 19.838 16.484 19.8727 16.224 19.9593C15.782 20.1153 15.912 20.358 15.1667 18.018C14.586 16.2153 13.4333 13.026 12.48 10.5907L11.8907 9.08267L12.4193 8.83133C13.39 8.38067 14.3 8.33733 15.6 8.67533Z" fill="black"/>
</svg>
