<svg width="26" height="26" viewBox="0 0 26 26" fill="none" xmlns="http://www.w3.org/2000/svg">
<rect width="26" height="26" fill="white"/>
<g clip-path="url(#clip0_0_1)">
<path d="M6.02333 4.14266C5.07867 4.472 4.29867 5.11333 3.89133 5.91067C3.78733 6.11 3.36267 7.176 2.94667 8.27667L2.20133 10.27L1.60333 10.5907C1.25667 10.764 0.840667 11.0847 0.632667 11.31C0.0173333 11.986 0 12.1247 0 15.9207V19.24L1.82867 19.2573L3.65733 19.2833L3.78733 19.6647C4.07333 20.5227 4.74067 21.2507 5.63333 21.6927C6.162 21.9527 6.24867 21.97 7.15 21.97C8.008 21.97 8.15533 21.944 8.606 21.736C9.27333 21.424 9.99267 20.7307 10.3133 20.0807C10.452 19.7947 10.5733 19.4913 10.5733 19.396C10.5733 19.2487 10.7033 19.24 13 19.24C15.2967 19.24 15.4267 19.2487 15.4267 19.396C15.4267 19.4913 15.548 19.7947 15.6953 20.0893C16.0073 20.722 16.744 21.424 17.42 21.7447C17.8447 21.944 18.0093 21.97 18.85 21.97C19.7513 21.97 19.838 21.9527 20.3667 21.6927C21.2593 21.2507 21.9267 20.5227 22.2127 19.6647L22.3427 19.2833L24.1713 19.2573L26 19.24V16.8567C26 15.4613 25.9567 14.2913 25.9047 14.0227C25.6707 12.9133 24.8473 11.8127 23.8593 11.2927C23.582 11.1453 22.698 10.842 21.9007 10.6167L20.4447 10.2007L19.2833 7.88667C17.94 5.23467 17.6453 4.84467 16.5967 4.32466L15.99 4.03L11.2233 4.01266C6.87267 3.99533 6.422 4.004 6.02333 4.14266ZM10.2093 7.774L10.2267 10.0533H7.06333H3.9L3.99533 9.81067C4.04733 9.68067 4.32467 8.95267 4.602 8.19C5.174 6.67333 5.382 6.28333 5.84133 5.93667C6.37867 5.52933 6.74267 5.46867 8.53667 5.486L10.1833 5.50333L10.2093 7.774ZM15.5307 5.54667C15.704 5.59867 16.0333 5.76333 16.2673 5.91933C16.6573 6.17933 16.7353 6.30933 17.6627 8.12067L18.642 10.0533H15.1667H11.7V7.81733C11.7 6.58667 11.726 5.54667 11.7607 5.52067C11.8473 5.42533 15.1753 5.45133 15.5307 5.54667ZM21.4673 12.0727C23.2093 12.584 23.5907 12.7833 24.0067 13.4247L24.2753 13.8233L23.6253 13.8493L22.9667 13.8753V14.6467V15.4267H23.7033H24.44V16.5533V17.68H23.4C22.4813 17.68 22.3513 17.6627 22.2993 17.524C21.8227 16.12 20.8087 15.2187 19.4307 14.976C17.8967 14.716 16.3453 15.522 15.6867 16.9173C15.5393 17.2207 15.4267 17.5153 15.4267 17.5673C15.4267 17.654 14.8807 17.68 13 17.68C11.1193 17.68 10.5733 17.654 10.5733 17.5673C10.5733 17.5153 10.4607 17.2207 10.3133 16.9173C9.65467 15.522 8.10333 14.716 6.578 14.976C5.2 15.21 4.14267 16.1547 3.692 17.524C3.64867 17.6627 3.51867 17.68 2.6 17.68H1.56V15.132C1.56 12.2027 1.52533 12.3327 2.40933 11.8733L2.90333 11.622H11.3967L19.89 11.6133L21.4673 12.0727ZM8.034 16.6747C9.94067 17.5673 9.26467 20.488 7.15 20.488C5.408 20.488 4.472 18.486 5.59867 17.1687C6.214 16.458 7.15 16.2673 8.034 16.6747ZM19.734 16.6487C21.3893 17.4547 21.1987 19.9073 19.4307 20.4187C17.5587 20.9647 16.1027 18.8413 17.2553 17.2553C17.7753 16.5273 18.9193 16.25 19.734 16.6487Z" fill="black"/>
</g>
<defs>
<clipPath id="clip0_0_1">
<rect width="26" height="26" fill="white"/>
</clipPath>
</defs>
</svg>
