 <svg  version="1.0" xmlns="http://www.w3.org/2000/svg"  width="300.000000pt" height="300.000000pt" viewBox="0 0 300.000000 300.000000"  preserveAspectRatio="xMidYMid meet">  <g transform="translate(0.000000,300.000000) scale(0.100000,-0.100000)" fill="#ffffff" stroke="none"> <path d="M683 2516 c-84 -31 -167 -96 -211 -165 -22 -33 -75 -158 -127 -298 l-90 -241 -61 -30 c-81 -40 -123 -79 -160 -144 l-29 -53 -3 -402 -3 -403 211 0 c192 0 211 -2 217 -17 48 -145 146 -244 282 -288 39 -13 75 -16 137 -13 153 8 278 92 345 233 16 33 29 66 29 73 0 9 63 12 280 12 217 0 280 -3 280 -12 0 -7 13 -40 29 -73 43 -90 100 -148 187 -192 64 -31 88 -37 158 -41 195 -10 352 102 419 301 6 15 25 17 217 17 l210 0 0 273 c0 303 -8 357 -62 459 -38 71 -128 157 -200 191 -29 14 -120 44 -203 67 -82 24 -158 47 -168 52 -9 5 -76 126 -148 270 -151 302 -183 344 -308 406 l-75 37 -545 2 -546 2 -62 -23z m497 -411 l0 -265 -366 0 c-345 0 -366 1 -359 18 4 9 33 88 66 175 71 189 82 212 123 255 67 72 99 80 339 81 l197 1 0 -265z m670 233 c25 -14 55 -37 67 -50 19 -20 233 -426 233 -442 0 -3 -180 -6 -400 -6 l-400 0 0 266 0 265 228 -3 c225 -3 227 -3 272 -30z m618 -727 c191 -54 248 -83 299 -149 50 -66 46 -72 -42 -72 l-75 0 0 -85 0 -85 90 0 91 0 -3 -132 -3 -133 -123 0 -124 0 -18 54 c-44 125 -159 225 -295 257 -66 16 -85 16 -147 6 -160 -28 -289 -142 -342 -304 -5 -17 -27 -18 -276 -18 -249 0 -271 1 -276 18 -53 162 -182 276 -342 304 -62 10 -81 10 -147 -6 -136 -32 -251 -132 -295 -257 l-18 -54 -124 0 -123 0 0 291 c0 237 3 296 15 318 8 17 40 41 75 59 l60 32 970 5 c534 3 977 4 985 3 8 -1 93 -25 188 -52z m-1529 -535 c41 -22 96 -89 109 -135 27 -88 6 -176 -58 -239 -52 -52 -87 -66 -166 -67 -61 0 -77 4 -119 30 -72 45 -106 98 -112 177 -3 39 -1 80 7 103 15 44 71 110 114 133 62 32 159 31 225 -2z m1343 3 c169 -85 172 -333 5 -421 -54 -29 -166 -31 -213 -6 -140 76 -177 251 -76 368 72 84 186 108 284 59z"/> </g> </svg> 