<svg width="26" height="26" viewBox="0 0 26 26" fill="none" xmlns="http://www.w3.org/2000/svg">
<rect width="26" height="26" fill="white"/>
<path d="M11.83 1.35201C11.1973 1.44734 10.166 1.66401 9.80201 1.79401C6.22267 2.99001 3.48401 6.04068 2.73001 9.66334C2.66067 10.0013 2.57401 10.7207 2.54801 11.258C2.51334 11.8473 2.45267 12.246 2.39201 12.2633C0.676006 12.7313 -0.329328 14.3953 0.121339 15.9987C0.442006 17.0993 0.996672 17.6453 2.35734 18.1913C2.54801 18.2607 2.60001 18.3387 2.60001 18.5293C2.60001 18.668 2.67801 19.0753 2.77334 19.448C3.68334 23.0273 6.95067 24.7 13 24.7C15.9207 24.7 18.1567 24.3187 19.8033 23.53C21.632 22.6633 22.75 21.32 23.2267 19.448C23.322 19.0753 23.4 18.668 23.4 18.5293C23.4 18.3387 23.452 18.2607 23.6427 18.1913C25.0033 17.6453 25.558 17.0993 25.8787 15.9987C26.3293 14.3953 25.324 12.7313 23.608 12.2633C23.5473 12.246 23.4867 11.8473 23.452 11.258C23.3567 9.67201 23.0447 8.46734 22.4033 7.18468C20.9387 4.25534 18.278 2.18401 15.1233 1.51668C14.456 1.37801 12.376 1.27401 11.83 1.35201ZM14.9067 2.57401C17.7493 3.15468 20.1673 5.02668 21.45 7.65268C22.334 9.47268 22.4813 10.582 22.4293 15.2707C22.3947 18.252 22.3687 18.6507 22.2127 19.1967C21.5627 21.502 19.8553 22.8193 16.8133 23.348C14.7073 23.7207 11.2927 23.7207 9.18667 23.348C6.11867 22.8107 4.39401 21.4673 3.76134 19.11C3.61401 18.5553 3.59667 18.148 3.59667 14.5167V10.53L3.82201 9.66334C4.28134 7.91268 5.00934 6.56068 6.11867 5.38201C7.15867 4.27268 8.35467 3.46668 9.70667 2.95534C11.6827 2.20134 14.6033 4.08201 14.794 6.23134C14.8547 6.88134 14.6727 7.41001 14.222 7.91268C13.8147 8.37201 13.3467 8.58001 12.714 8.58001C12.1593 8.58001 11.856 8.45868 11.5093 8.08601C11.076 7.62668 10.9547 6.88134 11.2407 6.40468C11.4053 6.13601 11.9773 5.80668 12.2807 5.80668C12.6967 5.80668 12.8873 5.25201 12.5927 4.92268C12.4193 4.73201 12.038 4.72334 11.5093 4.90534C9.90601 5.45134 9.51601 7.60934 10.79 8.88334C12.3153 10.4 15.0887 9.57668 15.73 7.41868C16.198 5.84134 15.3573 3.84801 13.7713 2.76468C13.494 2.57401 13.26 2.40068 13.26 2.38334C13.26 2.32268 14.248 2.43534 14.9067 2.57401ZM2.51334 15.21C2.51334 16.4493 2.48734 17.0733 2.42667 17.0733C2.13201 17.0733 1.52534 16.562 1.29134 16.12C0.840672 15.236 1.21334 13.9707 2.05401 13.5287C2.23601 13.4333 2.40934 13.3553 2.45267 13.3467C2.48734 13.3467 2.51334 14.1873 2.51334 15.21ZM23.9287 13.52C24.7867 13.962 25.168 15.2273 24.7087 16.12C24.4747 16.562 23.868 17.0733 23.5733 17.0733C23.5127 17.0733 23.4867 16.4493 23.4867 15.21C23.4867 14.1873 23.504 13.3467 23.53 13.3467C23.556 13.3467 23.738 13.4247 23.9287 13.52Z" fill="black"/>
<path d="M7.046 14.82C6.69934 15.028 6.58667 15.236 6.58667 15.6867C6.58667 15.9813 6.63867 16.1027 6.88134 16.3453C7.13267 16.5967 7.23667 16.64 7.58334 16.64C7.93 16.64 8.034 16.5967 8.28534 16.3453C8.528 16.1027 8.58 15.99 8.58 15.6693C8.58 15.236 8.424 14.9587 8.06 14.7767C7.722 14.6033 7.37534 14.612 7.046 14.82Z" fill="black"/>
<path d="M17.8793 14.82C17.5327 15.028 17.42 15.236 17.42 15.6867C17.42 15.9813 17.472 16.1027 17.7147 16.3453C17.966 16.5967 18.07 16.64 18.4167 16.64C18.7633 16.64 18.8673 16.5967 19.1187 16.3453C19.3613 16.1027 19.4133 15.99 19.4133 15.6693C19.4133 15.236 19.2573 14.9587 18.8933 14.7767C18.5553 14.6033 18.2087 14.612 17.8793 14.82Z" fill="black"/>
<path d="M10.2527 17.1167C9.75867 17.4633 10.1833 18.122 11.232 18.642C12.3153 19.1793 13.6847 19.1793 14.768 18.642C15.834 18.1133 16.25 17.4547 15.73 17.108C15.4787 16.9433 15.2273 17.004 14.846 17.342C14.326 17.7927 13.8147 17.966 13 17.966C12.1853 17.966 11.674 17.7927 11.154 17.3333C10.7813 17.0127 10.4953 16.9433 10.2527 17.1167Z" fill="black"/>
</svg>
