 <svg  version="1.0" xmlns="http://www.w3.org/2000/svg"  width="300.000000pt" height="300.000000pt" viewBox="0 0 300.000000 300.000000"  preserveAspectRatio="xMidYMid meet">  <g transform="translate(0.000000,300.000000) scale(0.100000,-0.100000)" fill="#ffffff" stroke="none"> <path d="M1365 2844 c-73 -11 -192 -36 -234 -51 -413 -138 -729 -490 -816 -908 -8 -39 -18 -122 -21 -184 -4 -68 -11 -114 -18 -116 -198 -54 -314 -246 -262 -431 37 -127 101 -190 258 -253 22 -8 28 -17 28 -39 0 -16 9 -63 20 -106 105 -413 482 -606 1180 -606 337 0 595 44 785 135 211 100 340 255 395 471 11 43 20 90 20 106 0 22 6 31 28 39 157 63 221 126 258 253 52 185 -64 377 -262 431 -7 2 -14 48 -18 116 -11 183 -47 322 -121 470 -169 338 -476 577 -840 654 -77 16 -317 28 -380 19z m355 -141 c328 -67 607 -283 755 -586 102 -210 119 -338 113 -879 -4 -344 -7 -390 -25 -453 -75 -266 -272 -418 -623 -479 -243 -43 -637 -43 -880 0 -354 62 -553 217 -626 489 -17 64 -19 111 -19 530 l0 460 26 100 c53 202 137 358 265 494 120 128 258 221 414 280 228 87 565 -130 587 -378 7 -75 -14 -136 -66 -194 -47 -53 -101 -77 -174 -77 -64 0 -99 14 -139 57 -50 53 -64 139 -31 194 19 31 85 69 120 69 48 0 70 64 36 102 -20 22 -64 23 -125 2 -185 -63 -230 -312 -83 -459 176 -175 496 -80 570 169 54 182 -43 412 -226 537 -32 22 -59 42 -59 44 0 7 114 -6 190 -22z m-1430 -1458 c0 -143 -3 -215 -10 -215 -34 0 -104 59 -131 110 -52 102 -9 248 88 299 21 11 41 20 46 21 4 0 7 -97 7 -215z m2471 195 c99 -51 143 -197 90 -300 -27 -51 -97 -110 -131 -110 -7 0 -10 72 -10 215 0 118 2 215 5 215 3 0 24 -9 46 -20z"/> <path d="M813 1290 c-40 -24 -53 -48 -53 -100 0 -34 6 -48 34 -76 29 -29 41 -34 81 -34 40 0 52 5 81 34 28 28 34 41 34 78 0 50 -18 82 -60 103 -39 20 -79 19 -117 -5z"/> <path d="M2063 1290 c-40 -24 -53 -48 -53 -100 0 -34 6 -48 34 -76 29 -29 41 -34 81 -34 40 0 52 5 81 34 28 28 34 41 34 78 0 50 -18 82 -60 103 -39 20 -79 19 -117 -5z"/> <path d="M1183 1025 c-57 -40 -8 -116 113 -176 125 -62 283 -62 408 0 123 61 171 137 111 177 -29 19 -58 12 -102 -27 -60 -52 -119 -72 -213 -72 -94 0 -153 20 -213 73 -43 37 -76 45 -104 25z"/> </g> </svg> 