<svg width="26" height="26" viewBox="0 0 26 26" fill="none" xmlns="http://www.w3.org/2000/svg">
<rect width="26" height="26" fill="white"/>
<path d="M8.28534 0.190668C8.10334 0.442001 8.08601 2.574 8.25934 2.79933C8.32867 2.90333 8.52801 2.94667 8.92667 2.964L9.49001 2.99L9.51601 5.94533L9.53334 8.90067L6.24001 16.4233C2.65201 24.6133 2.73867 24.3793 3.11134 25.116C3.31067 25.5147 3.51001 25.6967 3.92601 25.87C4.20334 25.9827 5.31267 26 13 26C20.6873 26 21.7967 25.9827 22.074 25.87C22.49 25.6967 22.6893 25.5147 22.8887 25.116C23.2613 24.3793 23.348 24.6133 19.76 16.4233L16.4667 8.90067L16.484 5.94533L16.51 2.99L17.0733 2.964C17.472 2.94667 17.6713 2.90333 17.7493 2.79933C17.914 2.574 17.8967 0.442001 17.7147 0.190668L17.5847 1.3262e-06H13H8.41534L8.28534 0.190668ZM16.9867 1.47333V2.16667H16.4407C16.1287 2.16667 15.8513 2.21 15.7907 2.27067C15.7127 2.34867 15.6867 3.24133 15.6867 5.76333V9.16067L16.328 10.6253L16.978 12.09L13.494 12.116C10.3393 12.1333 10.0013 12.1507 9.90601 12.2807C9.77601 12.454 9.76734 12.5667 9.88001 12.74C9.94934 12.8527 10.4953 12.8787 13.6587 12.9133L17.3507 12.9567L19.812 18.5727C21.164 21.658 22.2733 24.2667 22.2733 24.362C22.2733 24.674 22.0307 25.0293 21.7447 25.1247C21.3547 25.2633 4.64534 25.2633 4.25534 25.1247C3.96934 25.0293 3.72667 24.674 3.72667 24.362C3.72667 24.2667 5.20001 20.8433 7.00267 16.7527L10.27 9.31667L10.3133 6.15333L10.3567 2.99L12.6447 2.94667C14.8807 2.90333 14.9327 2.90333 15.002 2.72133C15.0453 2.6 15.0193 2.47 14.9413 2.34867C14.8113 2.16667 14.768 2.16667 11.908 2.16667H9.01334V1.47333V0.780001H13H16.9867V1.47333Z" fill="black"/>
<path d="M12.636 14.43C12.558 14.612 12.5667 14.6727 12.6967 14.82C12.844 14.976 12.9653 14.9933 14.3 14.9933C15.808 14.9933 15.9467 14.9587 15.9467 14.6033C15.9467 14.248 15.8167 14.2133 14.2393 14.2133H12.74L12.636 14.43Z" fill="black"/>
<path d="M12.6967 16.38C12.5667 16.5273 12.558 16.588 12.636 16.77C12.7313 16.978 12.766 16.9867 13.5547 16.9867C14.534 16.9867 14.6467 16.952 14.6467 16.6487C14.6467 16.2673 14.508 16.2067 13.65 16.2067C12.9653 16.2067 12.8353 16.2327 12.6967 16.38Z" fill="black"/>
<path d="M12.74 18.3733C12.6447 18.4687 12.5667 18.5813 12.5667 18.6333C12.5667 18.6767 12.6447 18.798 12.74 18.8933C12.896 19.0493 13.026 19.0667 14.2653 19.0667C15.028 19.0667 15.6867 19.032 15.782 18.98C15.886 18.9193 15.9467 18.798 15.9467 18.6333C15.9467 18.4687 15.886 18.3473 15.782 18.2867C15.6867 18.2347 15.028 18.2 14.2653 18.2C13.026 18.2 12.896 18.2173 12.74 18.3733Z" fill="black"/>
<path d="M12.636 20.4967C12.558 20.6787 12.5667 20.7393 12.6967 20.8867C12.8353 21.034 12.9653 21.06 13.65 21.06C14.508 21.06 14.6467 20.9993 14.6467 20.618C14.6467 20.3147 14.534 20.28 13.5547 20.28C12.766 20.28 12.7313 20.2887 12.636 20.4967Z" fill="black"/>
<path d="M12.6967 22.4813C12.584 22.646 12.5753 22.7327 12.6533 22.8713C12.74 23.0447 12.818 23.0533 14.2393 23.0533C15.8167 23.0533 15.9467 23.0187 15.9467 22.6633C15.9467 22.308 15.808 22.2733 14.2827 22.2733C12.844 22.2733 12.8267 22.2733 12.6967 22.4813Z" fill="black"/>
</svg>
