 <svg  version="1.0" xmlns="http://www.w3.org/2000/svg"  width="300.000000pt" height="300.000000pt" viewBox="0 0 300.000000 300.000000"  preserveAspectRatio="xMidYMid meet">  <g transform="translate(0.000000,300.000000) scale(0.100000,-0.100000)" fill="#ffffff" stroke="none"> <path d="M960 2980 c-18 -18 -20 -33 -20 -148 0 -163 5 -172 96 -172 l64 0 0 -348 0 -347 -70 -160 c-39 -88 -75 -169 -80 -180 -5 -11 -51 -114 -101 -230 -50 -115 -147 -336 -214 -490 -68 -154 -162 -369 -209 -477 -96 -220 -103 -253 -63 -329 18 -33 37 -51 76 -71 l53 -28 1008 0 1008 0 53 28 c39 20 58 38 76 71 40 76 33 109 -63 329 -413 945 -492 1123 -590 1347 l-84 189 0 348 0 348 64 0 c91 0 96 9 96 172 0 115 -2 130 -20 148 -19 19 -33 20 -540 20 -507 0 -521 -1 -540 -20z m1000 -150 l0 -80 -59 0 c-97 0 -91 26 -91 -415 l0 -384 71 -163 c39 -90 73 -169 76 -175 4 -10 -78 -13 -390 -13 -218 0 -402 -3 -411 -6 -20 -8 -21 -57 -3 -73 10 -7 144 -12 433 -13 l419 -3 282 -645 c176 -401 283 -657 283 -677 0 -19 -9 -43 -24 -60 l-24 -28 -1004 -3 c-740 -2 -1010 1 -1031 9 -36 15 -57 46 -57 83 0 17 110 280 256 616 141 322 312 712 380 867 l124 282 0 356 0 355 258 0 c187 0 261 3 270 12 18 18 14 56 -7 68 -13 6 -140 10 -345 10 l-326 0 0 80 0 80 460 0 460 0 0 -80z"/> <path d="M1466 1341 c-19 -21 -13 -47 15 -61 24 -13 315 -13 340 0 21 12 25 50 7 68 -8 8 -62 12 -178 12 -150 0 -169 -2 -184 -19z"/> <path d="M1466 1108 c-13 -19 -14 -25 -2 -43 12 -17 26 -20 106 -23 99 -3 120 4 120 44 0 34 -28 44 -124 44 -76 0 -86 -2 -100 -22z"/> <path d="M1460 870 c-8 -14 -8 -26 0 -40 10 -20 19 -20 187 -18 155 3 177 5 187 21 8 12 8 22 0 35 -10 15 -32 17 -187 20 -168 2 -177 2 -187 -18z"/> <path d="M1465 640 c-17 -18 -17 -21 -1 -45 15 -23 22 -25 102 -25 95 0 124 10 124 43 0 40 -18 47 -115 47 -79 0 -94 -3 -110 -20z"/> <path d="M1482 423 c-7 -2 -17 -14 -23 -25 -8 -15 -7 -24 7 -39 16 -17 32 -19 184 -19 171 0 190 4 190 41 0 43 -23 49 -188 48 -86 0 -163 -3 -170 -6z"/> </g> </svg> 