 <svg  version="1.0" xmlns="http://www.w3.org/2000/svg"  width="300.000000pt" height="300.000000pt" viewBox="0 0 300.000000 300.000000"  preserveAspectRatio="xMidYMid meet">  <g transform="translate(0.000000,300.000000) scale(0.100000,-0.100000)" fill="#ffffff" stroke="none"> <path d="M877 2775 c-125 -46 -239 -93 -252 -104 -36 -28 -542 -478 -587 -522 -23 -22 -38 -46 -38 -60 0 -17 68 -92 255 -279 l255 -255 0 -692 0 -692 22 -15 c20 -14 128 -16 968 -16 840 0 948 2 968 16 l22 15 0 692 0 692 255 255 c187 187 255 262 255 279 0 14 -15 38 -37 60 -35 33 -522 466 -586 520 -17 14 -128 60 -265 109 -219 78 -239 83 -262 70 -19 -11 -28 -27 -37 -73 -35 -178 -132 -272 -289 -283 -110 -7 -176 16 -244 86 -55 56 -81 111 -104 224 -7 32 -31 58 -54 58 -9 -1 -119 -39 -245 -85z m212 -102 c37 -143 180 -266 340 -294 118 -21 257 17 350 98 54 46 118 143 133 200 6 24 13 43 17 43 3 0 88 -31 188 -68 l182 -67 223 -200 c123 -110 247 -222 276 -250 l52 -50 -177 -178 -178 -178 -3 142 c-2 117 -6 146 -19 162 -24 26 -74 19 -90 -13 -10 -20 -13 -216 -13 -892 l0 -868 -875 0 -875 0 0 879 c0 959 3 911 -55 911 -49 0 -55 -20 -55 -176 0 -79 -4 -144 -8 -144 -14 0 -354 349 -350 359 1 5 126 120 277 255 l275 245 100 36 c56 20 135 50 176 65 41 16 80 29 86 29 5 1 16 -20 23 -46z"/> </g> </svg> 