<svg width="26" height="26" viewBox="0 0 26 26" fill="none" xmlns="http://www.w3.org/2000/svg">
<rect width="26" height="26" fill="white"/>
<g clip-path="url(#clip0_0_1)">
<path d="M7.60067 1.95C6.51733 2.34867 5.52933 2.756 5.41667 2.85133C5.10467 3.094 0.719333 6.994 0.329333 7.37533C0.13 7.566 0 7.774 0 7.89533C0 8.04267 0.589333 8.69267 2.21 10.3133L4.42 12.5233V18.5207V24.518L4.61067 24.648C4.784 24.7693 5.72 24.7867 13 24.7867C20.28 24.7867 21.216 24.7693 21.3893 24.648L21.58 24.518V18.5207V12.5233L23.79 10.3133C25.4107 8.69267 26 8.04267 26 7.89533C26 7.774 25.87 7.566 25.6793 7.37533C25.376 7.08933 21.1553 3.33667 20.6007 2.86867C20.4533 2.74733 19.4913 2.34867 18.304 1.924C16.406 1.248 16.2327 1.20467 16.0333 1.31733C15.8687 1.41267 15.7907 1.55133 15.7127 1.95C15.4093 3.49267 14.5687 4.30733 13.208 4.40267C12.2547 4.46333 11.6827 4.264 11.0933 3.65733C10.6167 3.172 10.3913 2.69533 10.192 1.716C10.1313 1.43867 9.92333 1.21333 9.724 1.21333C9.646 1.222 8.69267 1.55133 7.60067 1.95ZM9.438 2.834C9.75867 4.07333 10.998 5.13933 12.3847 5.382C13.4073 5.564 14.612 5.23467 15.418 4.53267C15.886 4.134 16.4407 3.29333 16.5707 2.79933C16.6227 2.59133 16.6833 2.42667 16.718 2.42667C16.744 2.42667 17.4807 2.69533 18.3473 3.016L19.9247 3.59667L21.8573 5.33C22.9233 6.28333 23.998 7.254 24.2493 7.49667L24.7 7.93L23.166 9.47267L21.6233 11.0153L21.5973 9.78467C21.58 8.77067 21.5453 8.51933 21.4327 8.38067C21.2247 8.15533 20.7913 8.216 20.6527 8.49333C20.566 8.66667 20.54 10.3653 20.54 16.224V23.7467H12.9567H5.37333V16.1287C5.37333 7.81733 5.39933 8.23333 4.89667 8.23333C4.472 8.23333 4.42 8.40667 4.42 9.75867C4.42 10.4433 4.38533 11.0067 4.35067 11.0067C4.22933 11.0067 1.28267 7.982 1.31733 7.89533C1.326 7.852 2.40933 6.85533 3.718 5.68533L6.10133 3.562L6.968 3.25C7.45333 3.07667 8.138 2.81667 8.49333 2.68667C8.84867 2.548 9.18667 2.43533 9.23867 2.43533C9.282 2.42667 9.37733 2.60867 9.438 2.834Z" fill="black"/>
</g>
<defs>
<clipPath id="clip0_0_1">
<rect width="26" height="26" fill="white"/>
</clipPath>
</defs>
</svg>
