<svg width="26" height="26" viewBox="0 0 26 26" fill="none" xmlns="http://www.w3.org/2000/svg">
<rect width="26" height="26" fill="white"/>
<g clip-path="url(#clip0_0_1)">
<path d="M6.5 4.84467L0.0433333 9.672L0.0173333 11.466L0 13.26H0.866667H1.73333V19.63V26H13H24.2667V19.63V13.26H25.1333H26V11.544V9.828L24.7 8.84867L23.4 7.86067V4.80133V1.73333H20.8433H18.2867V2.86V3.99533L15.6433 1.99333C14.196 0.901335 13 1.3262e-06 12.9827 0.00866799C12.9653 0.00866799 10.0533 2.184 6.5 4.84467ZM18.746 6.24L24.4313 10.53V11.1107L24.44 11.7H23.816H23.2007L18.2087 7.94733C15.4613 5.89333 13.1733 4.16867 13.1127 4.134C13.0347 4.09067 12.7227 4.264 12.194 4.64533C11.7607 4.966 9.42067 6.69067 7.00267 8.46733L2.6 11.7H2.08H1.55133L1.57733 11.05L1.60333 10.4087L7.28 6.162C10.4 3.83067 12.9827 1.924 13.0087 1.93267C13.0433 1.94133 15.6173 3.88267 18.746 6.24ZM21.84 4.98333V6.67333L20.8433 5.928L19.8467 5.18267V4.238V3.29333H20.8433H21.84V4.98333ZM17.0473 8.98733L21.06 12.0033L18.85 12.0293L16.64 12.0467V13.6067V15.1667H15.08H13.52V16.7267V18.2867H12.0033H10.4867V19.8467V21.4067H8.97H7.45333V22.9233V24.44H5.37333H3.29333L3.31067 18.746L3.33667 13.052L4.81 11.9687C8.82267 9.00467 12.9567 5.98 12.9913 5.98C13.0087 5.98 14.8373 7.332 17.0473 8.98733ZM22.7067 14.3867V15.1667H20.41H18.1133V14.3867V13.6067H20.41H22.7067V14.3867ZM19.6733 17.5067V18.2867H17.3767H15.08V17.5067V16.7267H17.3767H19.6733V17.5067ZM22.7067 17.5067V18.2867H21.9267H21.1467V17.5067V16.7267H21.9267H22.7067V17.5067ZM16.5967 20.6267V21.3633L14.326 21.3893L12.0467 21.4067V20.6267V19.8467L14.326 19.864L16.5967 19.89V20.6267ZM22.7067 20.6267V21.4067H20.41H18.1133V20.6267V19.8467H20.41H22.7067V20.6267ZM13.52 23.7033V24.44H11.2233H8.92667V23.7033V22.9667H11.2233H13.52V23.7033ZM19.6733 23.7033V24.44H17.3767H15.08V23.7033V22.9667H17.3767H19.6733V23.7033ZM22.7067 23.7033V24.44H21.9267H21.1467V23.7033V22.9667H21.9267H22.7067V23.7033Z" fill="black"/>
</g>
<defs>
<clipPath id="clip0_0_1">
<rect width="26" height="26" fill="white"/>
</clipPath>
</defs>
</svg>
