 <svg  version="1.0" xmlns="http://www.w3.org/2000/svg"  width="300.000000pt" height="300.000000pt" viewBox="0 0 300.000000 300.000000"  preserveAspectRatio="xMidYMid meet">  <g transform="translate(0.000000,300.000000) scale(0.100000,-0.100000)" fill="#ffffff" stroke="none"> <path d="M1250 2812 c-129 -98 -463 -347 -742 -556 l-508 -378 0 -204 0 -204 105 0 105 0 0 -735 0 -735 1290 0 1290 0 0 735 0 735 105 0 105 0 0 198 -1 197 -149 113 -150 113 -2 352 -3 352 -290 0 -290 0 -5 -127 -5 -128 -297 225 c-164 124 -303 225 -310 224 -7 0 -119 -80 -248 -177z m424 -161 c94 -71 315 -238 491 -371 176 -134 398 -301 493 -373 l173 -130 -3 -66 -3 -66 -69 -3 -68 -3 -594 446 -594 445 -262 -193 c-145 -106 -417 -307 -606 -446 l-343 -252 -57 3 -57 3 -3 72 c-3 70 -2 72 30 97 68 53 1293 966 1297 966 3 0 81 -58 175 -129z m846 -222 c0 -160 -3 -199 -12 -192 -7 6 -59 44 -115 86 l-102 77 -3 111 c-2 61 -1 113 1 115 2 2 55 4 118 4 l113 0 0 -201z m-550 -465 c253 -190 460 -350 460 -355 0 -5 -109 -9 -255 -9 l-255 0 0 -175 0 -175 -177 -2 -178 -3 -3 -182 -2 -183 -175 0 -175 0 0 -175 0 -175 -175 0 -175 0 -2 -177 -3 -178 -238 -3 -237 -2 0 662 0 663 393 288 c215 158 464 341 552 406 88 66 165 120 172 120 7 1 219 -155 473 -345z m650 -624 l0 -90 -265 0 -265 0 0 90 0 90 265 0 265 0 0 -90z m-352 -362 l3 -98 -266 0 -265 0 0 93 c0 52 3 97 7 100 4 4 122 6 262 5 l256 -3 3 -97z m350 -1 l3 -98 -88 3 -88 3 -3 84 c-2 46 0 91 2 98 4 11 25 13 88 11 l83 -3 3 -98z m-698 -357 l0 -90 -270 0 -270 0 0 90 0 90 270 0 270 0 0 -90z m700 0 l0 -90 -265 0 -265 0 0 90 0 90 265 0 265 0 0 -90z m-1060 -355 l0 -95 -262 2 -263 3 -3 79 c-2 44 -1 85 2 93 4 10 57 13 266 13 l260 0 0 -95z m705 0 l0 -90 -262 -3 -263 -2 0 95 0 95 263 -2 262 -3 0 -90z m353 3 l-3 -93 -85 0 -85 0 -3 79 c-2 44 -1 85 2 93 4 9 29 13 91 13 l86 0 -3 -92z"/> </g> </svg> 