<svg width="26" height="26" viewBox="0 0 26 26" fill="none" xmlns="http://www.w3.org/2000/svg">
<rect width="26" height="26" fill="white"/>
<path d="M16.666 0.233995C16.6053 0.251328 16.536 0.398661 16.51 0.554661C16.4667 0.762661 16.3887 0.857995 16.198 0.927328C15.8513 1.05733 15.8513 1.36933 16.2067 1.49933C16.3887 1.56866 16.4667 1.65533 16.4667 1.79399C16.4667 1.96733 16.4233 1.99333 16.12 1.99333C15.886 1.99333 15.756 2.03666 15.6953 2.14933C15.5567 2.40933 15.7387 2.59999 16.12 2.59999C16.432 2.59999 16.4667 2.62599 16.4667 2.81666C16.4667 3.02466 16.4407 3.03333 15.9987 3.03333C15.6867 3.03333 15.4787 3.07666 15.392 3.17199C15.0973 3.45799 15.3227 3.63999 15.964 3.63999C16.4667 3.63999 16.4667 3.63999 16.4667 3.89999V4.15999H15.8167C15.288 4.15999 15.1493 4.18599 15.106 4.29866C14.9933 4.60199 15.2013 4.72333 15.8513 4.74933C16.4407 4.77533 16.4667 4.78399 16.4667 4.98333C16.4667 5.19133 16.4407 5.19999 15.9987 5.19999C15.6867 5.19999 15.4787 5.24333 15.392 5.33866C15.0973 5.62466 15.3227 5.80666 15.964 5.80666C16.4667 5.80666 16.4667 5.80666 16.4667 6.06666C16.4667 6.30933 16.4493 6.32666 16.12 6.32666C15.886 6.32666 15.756 6.36999 15.6953 6.48266C15.5567 6.74266 15.7387 6.93333 16.12 6.93333C16.432 6.93333 16.4667 6.95933 16.4667 7.14133C16.4667 7.29733 16.4147 7.36666 16.2847 7.38399C15.8687 7.44466 15.8427 7.97333 16.25 7.97333C16.4493 7.97333 16.4667 8.00799 16.4667 8.31999C16.4667 8.60599 16.4407 8.66666 16.302 8.66666C16.2067 8.66666 16.0507 8.77066 15.9553 8.89199C15.782 9.11733 15.7733 9.22133 15.7733 11.7953V14.4733H15.47C15.2967 14.4733 15.0453 14.534 14.9067 14.6033C14.378 14.8807 14.3867 14.768 14.3867 20.15C14.3867 25.5927 14.3693 25.4627 14.95 25.7053C15.1753 25.792 15.6607 25.8267 16.8307 25.8267C18.564 25.8267 18.9107 25.7487 19.1273 25.3067C19.214 25.142 19.24 23.9113 19.24 20.0893V15.08L18.9973 14.8113C18.798 14.586 18.668 14.5253 18.304 14.4907L17.8533 14.4473V11.7433V9.03933L17.654 8.85733C17.5413 8.75333 17.3853 8.66666 17.3073 8.66666C17.1947 8.66666 17.16 8.58866 17.16 8.31999C17.16 8.01666 17.186 7.97333 17.368 7.97333C17.8273 7.97333 17.862 7.48799 17.4113 7.39266C17.2207 7.35799 17.16 7.29733 17.16 7.14133C17.16 6.95933 17.2033 6.93333 17.498 6.93333C18.174 6.93333 18.2 6.39599 17.5153 6.34399C17.186 6.31799 17.16 6.30066 17.16 6.05799V5.80666H17.7147C18.2173 5.80666 18.278 5.78933 18.3387 5.61599C18.4253 5.34733 18.174 5.19999 17.6193 5.19999C17.186 5.19999 17.16 5.18266 17.16 4.98333C17.16 4.78399 17.186 4.77533 17.836 4.74933L18.5033 4.72333V4.46333V4.20333L17.836 4.17733L17.16 4.15133V3.89999C17.16 3.64866 17.16 3.64866 17.7407 3.62266C18.2433 3.59666 18.33 3.57066 18.356 3.43199C18.408 3.18066 18.1393 3.03333 17.6193 3.03333C17.186 3.03333 17.16 3.02466 17.16 2.81666C17.16 2.62599 17.1947 2.59999 17.498 2.59999C18.174 2.59999 18.2 2.06266 17.5153 2.01066C17.2033 1.98466 17.16 1.95866 17.16 1.77666C17.16 1.62066 17.2207 1.55999 17.4113 1.51666C17.8533 1.42133 17.8533 1.00533 17.42 0.909995C17.2293 0.866661 17.1687 0.797328 17.1253 0.563328C17.082 0.337995 16.8913 0.129995 16.7873 0.181995C16.7787 0.181995 16.7267 0.207995 16.666 0.233995ZM17.2293 11.8473L17.2467 14.4733H16.8133H16.38V11.882C16.38 9.88866 16.406 9.27333 16.4927 9.23866C16.5447 9.21266 16.7353 9.20399 16.9 9.21266L17.2033 9.22999L17.2293 11.8473ZM18.5293 15.184C18.6073 15.262 18.6333 16.484 18.6333 20.1673C18.6333 24.8993 18.6247 25.0467 18.4687 25.1333C18.3647 25.1853 17.6627 25.22 16.7787 25.22C15.522 25.22 15.2447 25.194 15.132 25.0813C15.0107 24.96 14.9933 24.3967 14.9933 20.1847C14.9933 17.0647 15.028 15.3573 15.08 15.2447C15.1667 15.0887 15.2793 15.08 16.796 15.08C17.9487 15.08 18.46 15.1147 18.5293 15.184Z" fill="black"/>
<path d="M7.67 1.25666C7.462 1.46466 7.45333 1.49932 7.45333 2.85999C7.45333 3.99532 7.42733 4.24666 7.332 4.24666C7.26267 4.24666 7.10667 4.36799 6.98533 4.51532L6.76 4.78399V14.9847C6.76 26.3033 6.71667 25.4453 7.332 25.7053C7.748 25.8787 10.634 25.8787 11.0587 25.6967C11.648 25.454 11.6133 26.0607 11.6133 14.9327C11.6133 5.17399 11.6047 4.88799 11.4487 4.61932C11.3533 4.47199 11.1973 4.32466 11.102 4.28999C10.9287 4.23799 10.92 4.17732 10.92 2.93799C10.92 1.58599 10.842 1.21332 10.53 1.09199C10.452 1.06599 9.81933 1.03999 9.13467 1.03999C7.91267 1.03999 7.86933 1.04866 7.67 1.25666ZM10.3133 2.90332V4.15999H9.18667H8.06V2.90332V1.64666H9.18667H10.3133V2.90332ZM10.92 4.93132C10.9633 5.02666 11.0067 5.49466 11.0067 5.97132V6.84666H9.18667H7.36667V5.91066C7.36667 5.29532 7.40133 4.93999 7.47067 4.87066C7.54 4.80132 8.05133 4.76666 9.204 4.76666C10.7207 4.76666 10.8333 4.77532 10.92 4.93132ZM11.0067 16.198C11.0067 24.0327 10.9893 24.96 10.868 25.0813C10.7553 25.194 10.478 25.22 9.22133 25.22C8.33733 25.22 7.63533 25.1853 7.53133 25.1333C7.36667 25.0467 7.36667 24.856 7.36667 16.25V7.45332H9.18667H11.0067V16.198Z" fill="black"/>
</svg>
