<?xml version="1.0" standalone="no"?>
<!DOCTYPE svg PUBLIC "-//W3C//DTD SVG 20010904//EN"
 "http://www.w3.org/TR/2001/REC-SVG-20010904/DTD/svg10.dtd">
<svg version="1.0" xmlns="http://www.w3.org/2000/svg"
 width="300.000000pt" height="300.000000pt" viewBox="0 0 300.000000 300.000000"
 preserveAspectRatio="xMidYMid meet">
<metadata>
Created by potrace 1.10, written by Peter Selinger 2001-2011
</metadata>
<g transform="translate(0.000000,300.000000) scale(0.100000,-0.100000)"
fill="#ffffff" stroke="none">
<path d="M1915 2958 c-2 -7 -5 -24 -7 -38 -2 -19 -10 -26 -33 -30 -24 -4 -30
-10 -30 -30 0 -20 6 -26 30 -30 24 -4 31 -11 33 -33 3 -25 1 -27 -32 -27 -49
0 -66 -9 -66 -35 0 -26 17 -35 66 -35 33 0 35 -2 32 -27 -3 -27 -6 -28 -68
-33 -61 -5 -65 -6 -65 -30 0 -24 4 -25 65 -30 62 -5 65 -6 68 -32 l3 -27 -77
-3 c-59 -2 -79 -7 -87 -20 -21 -32 8 -48 90 -48 l74 0 -3 -27 c-3 -27 -6 -28
-68 -33 -61 -5 -65 -6 -65 -30 0 -24 4 -25 65 -30 61 -5 65 -6 65 -30 0 -22
-5 -26 -45 -30 -33 -4 -46 -10 -48 -23 -6 -29 17 -47 60 -47 37 0 39 -2 36
-27 -2 -22 -9 -29 -33 -33 -24 -4 -30 -10 -30 -30 0 -20 6 -26 30 -30 25 -4
30 -10 33 -38 3 -29 0 -34 -28 -43 -57 -20 -60 -37 -60 -367 l0 -299 -48 -7
c-62 -8 -89 -28 -102 -74 -6 -23 -10 -237 -10 -580 0 -583 1 -590 51 -626 20
-14 55 -16 234 -16 226 0 236 3 264 57 8 15 11 191 11 588 0 494 -2 570 -16
596 -17 34 -66 59 -114 59 l-30 0 0 306 c0 199 -4 312 -11 326 -6 11 -26 26
-45 34 -29 12 -34 19 -34 49 0 31 3 34 33 37 27 2 32 7 32 28 0 20 -6 26 -30
30 -24 4 -31 11 -33 33 -3 26 -2 27 42 27 36 0 48 4 56 21 17 31 -4 49 -56 49
-42 0 -44 1 -44 30 l0 30 64 0 c67 0 92 13 80 43 -4 12 -23 17 -72 19 -65 3
-67 4 -70 30 l-3 27 77 3 c81 3 104 17 91 52 -5 13 -22 16 -87 16 l-80 0 0 30
0 30 64 0 c67 0 92 13 80 43 -4 12 -23 17 -72 19 -65 3 -67 4 -70 31 -3 26 -2
27 42 27 33 0 48 5 55 18 17 32 -5 52 -55 52 -44 0 -45 1 -42 27 2 22 9 29 33
33 24 4 30 10 30 30 0 20 -6 26 -30 30 -25 4 -31 11 -35 40 -4 27 -10 36 -28
38 -12 2 -24 -3 -27 -10z m73 -1325 l2 -303 -50 0 -50 0 0 298 c0 164 3 302 7
306 4 4 25 6 48 4 l40 -3 3 -302z m150 -385 c17 -17 17 -1129 0 -1146 -17 -17
-379 -17 -396 0 -17 17 -17 1129 0 1146 17 17 379 17 396 0z"/>
<path d="M899 2867 c-33 -26 -39 -55 -39 -206 0 -143 -1 -150 -21 -156 -11 -4
-29 -21 -40 -38 -18 -31 -19 -64 -19 -1195 0 -837 3 -1169 11 -1185 28 -54 38
-57 265 -57 198 0 213 1 237 21 15 11 31 37 37 57 8 26 10 390 8 1187 -3 1241
0 1177 -54 1206 -22 11 -23 18 -26 171 l-3 160 -28 24 c-27 23 -34 24 -170 24
-96 -1 -147 -5 -158 -13z m275 -53 c14 -5 16 -28 16 -150 l0 -144 -130 0 -130
0 0 143 c0 79 3 147 7 150 8 9 216 9 237 1z m84 -376 c8 -8 12 -49 12 -120 l0
-108 -210 0 -210 0 0 114 c0 82 4 116 13 119 6 3 95 6 197 6 132 1 189 -2 198
-11z m12 -1311 c0 -775 -3 -1016 -12 -1025 -17 -17 -379 -17 -396 0 -9 9 -12
250 -12 1025 l0 1013 210 0 210 0 0 -1013z"/>
</g>
</svg>
